<svg width="512" height="512" viewBox="0 0 512 512" xmlns="http://www.w3.org/2000/svg">
  <defs>
    <!-- Background gradient -->
    <linearGradient id="bgGradient" x1="0%" y1="0%" x2="100%" y2="0%">
      <stop offset="0%" style="stop-color:#6366f1;stop-opacity:1" />
      <stop offset="50%" style="stop-color:#8b5cf6;stop-opacity:1" />
      <stop offset="100%" style="stop-color:#06b6d4;stop-opacity:1" />
    </linearGradient>
    
    <!-- Letter A gradient -->
    <linearGradient id="letterGradient" x1="0%" y1="0%" x2="100%" y2="0%">
      <stop offset="0%" style="stop-color:#a78bfa;stop-opacity:1" />
      <stop offset="100%" style="stop-color:#67e8f9;stop-opacity:1" />
    </linearGradient>
    
    <!-- Rounded corners filter -->
    <filter id="roundedCorners">
      <feGaussianBlur in="SourceGraphic" stdDeviation="0"/>
    </filter>
  </defs>
  
  <!-- Background with rounded corners -->
  <rect x="0" y="0" width="512" height="512" rx="80" ry="80" fill="url(#bgGradient)"/>
  
  <!-- Hand silhouette -->
  <path d="M 156 320 Q 156 300 176 300 L 336 300 Q 356 300 356 320 L 356 380 Q 356 400 336 400 L 176 400 Q 156 400 156 380 Z M 176 320 L 336 320 L 336 380 L 176 380 Z" fill="white" opacity="0.95"/>
  
  <!-- Hand fingers -->
  <path d="M 186 320 L 186 360 Q 186 370 196 370 L 196 380 Q 196 390 186 390 L 176 390 Q 166 390 166 380 L 166 370 Q 166 360 176 360 Z" fill="white" opacity="0.95"/>
  <path d="M 206 320 L 206 360 Q 206 370 216 370 L 216 380 Q 216 390 206 390 L 196 390 Q 186 390 186 380 L 186 370 Q 186 360 196 360 Z" fill="white" opacity="0.95"/>
  <path d="M 226 320 L 226 360 Q 226 370 236 370 L 236 380 Q 236 390 226 390 L 216 390 Q 206 390 206 380 L 206 370 Q 206 360 216 360 Z" fill="white" opacity="0.95"/>
  <path d="M 246 320 L 246 360 Q 246 370 256 370 L 256 380 Q 256 390 246 390 L 236 390 Q 226 390 226 380 L 226 370 Q 226 360 236 360 Z" fill="white" opacity="0.95"/>
  <path d="M 266 320 L 266 360 Q 266 370 276 370 L 276 380 Q 276 390 266 390 L 256 390 Q 246 390 246 380 L 246 370 Q 246 360 256 360 Z" fill="white" opacity="0.95"/>
  <path d="M 286 320 L 286 360 Q 286 370 296 370 L 296 380 Q 296 390 286 390 L 276 390 Q 266 390 266 380 L 266 370 Q 266 360 276 360 Z" fill="white" opacity="0.95"/>
  <path d="M 306 320 L 306 360 Q 306 370 316 370 L 316 380 Q 316 390 306 390 L 296 390 Q 286 390 286 380 L 286 370 Q 286 360 296 360 Z" fill="white" opacity="0.95"/>
  <path d="M 326 320 L 326 360 Q 326 370 336 370 L 336 380 Q 336 390 326 390 L 316 390 Q 306 390 306 380 L 306 370 Q 306 360 316 360 Z" fill="white" opacity="0.95"/>
  
  <!-- Padlock body -->
  <rect x="216" y="240" width="80" height="60" rx="8" ry="8" fill="white" opacity="0.95"/>
  
  <!-- Padlock shackle -->
  <path d="M 236 240 Q 236 230 246 230 L 266 230 Q 276 230 276 240 L 276 250 L 236 250 Z" fill="white" opacity="0.95"/>
  
  <!-- Letter A -->
  <path d="M 246 260 L 266 260 L 266 280 L 256 280 L 256 290 L 246 290 Z M 246 260 L 256 280 L 266 260" fill="url(#letterGradient)"/>
  
  <!-- Keyhole -->
  <circle cx="256" cy="270" r="3" fill="url(#letterGradient)"/>
  <rect x="253" y="270" width="6" height="8" rx="3" ry="3" fill="url(#letterGradient)"/>
</svg>
